<svg xmlns="http://www.w3.org/2000/svg" viewBox="0 0 228.5 40.36"><g id="OJ.com" data-name="OJCom"><g id="OJCom2" data-name="OJCom2"><path d="M2.46,1.23H22.4V6.46H3.9v4.85a33.6,33.6,0,0,1-.72,6.89,16.23,16.23,0,0,1-2,5.35L0,22.46Q2.46,18.63,2.46,11.2ZM21,2.43H3.9V5.26H21ZM13.65,9.88V12.5l8.5-.6.12,1.18-8.62.65v2.52l9.8-.72.11,1.22-9.91.74v3.3a1.78,1.78,0,0,0,.11.74.65.65,0,0,0,.6.23h6.52a3.74,3.74,0,0,0,.93-.07c.3-.12.47-.66.53-1.64,0-.41.05-1,.06-1.77l1.38.42a12.48,12.48,0,0,1-.36,3.43,1.54,1.54,0,0,1-1.13.86,5.76,5.76,0,0,1-1.24.1H14.44q-1.45,0-1.86-.6a3.07,3.07,0,0,1-.32-1.64V17.59l-7.68.56-.12-1.21,7.8-.59V13.83l-6.77.51-.11-1.26,6.88-.48V10q-4,.38-6.88.45L5,9.2h.48A81,81,0,0,0,17.4,8.14a28.73,28.73,0,0,0,3.54-.75l.62,1.19A58.39,58.39,0,0,1,13.65,9.88Z"/><path d="M28.72.39H30.2V10.45a35.37,35.37,0,0,1-.87,7.85,10.34,10.34,0,0,1-2.68,5.14l-1-1.2A9.83,9.83,0,0,0,27.89,18a30.68,30.68,0,0,0,.83-7.65Zm8.43.86h1.48V21.68H37.15Zm8.9-.83h1.51V23.58H46.05Z"/><path d="M63.26,2.24V3.49H54.82v5.6a1.05,1.05,0,0,0,.09.55c.09.11.32.16.71.16h6.05l-.31,1.29H55c-1.07,0-1.6-.56-1.6-1.66V3.49h-1.5V2.24h5.3V.15h1.36V2.24ZM73.61,13.63v1.26H64v2.36h8.81v1.2H64v3H74.65V22.7H51.91V21.41H62.57v-3H53.79v-1.2h8.78V14.89H52.93V13.63ZM72.5,8.06H65.63a10.53,10.53,0,0,1-2.37,4.42l-1.08-.83a9.32,9.32,0,0,0,2.24-4.24,25.09,25.09,0,0,0,.5-5.81c0-.24,0-.53,0-.85h9.22a73.36,73.36,0,0,1-.52,9.45A2.17,2.17,0,0,1,72.48,12a4.32,4.32,0,0,1-1.74.28h-3l-.25-1.36,3.16.1h.15a1.56,1.56,0,0,0,1.2-.34A7.67,7.67,0,0,0,72.5,8.06ZM72.67,5H66.16c0,.58-.14,1.24-.28,2h6.68q0-.19,0-.66C72.63,5.71,72.65,5.27,72.67,5Zm0-1.11c0-.73.07-1.37.07-1.93h-6.5c0,.59,0,1.23-.05,1.93Z"/><path d="M82.85,2.19V6.86h3V8.1h-3l.05.09a26.13,26.13,0,0,0,3.15,5.15l-.85,1.07a23.15,23.15,0,0,1-2.35-3.95v13.1H81.52V11.36a23.83,23.83,0,0,1-3.91,6.47l-.73-1.18a24.94,24.94,0,0,0,4.64-8.52v0H77.07V6.86h4.45V2.46a33.71,33.71,0,0,1-3.81.5l-.53-1.22A30.33,30.33,0,0,0,85,.27l.73,1.07A20.61,20.61,0,0,1,82.85,2.19ZM99,.49A28.12,28.12,0,0,1,96.28,5.6h3.18v8.3H95.32v7.33q0,.69.15.78a1.94,1.94,0,0,0,.8.1h2a1,1,0,0,0,.7-.18,9.11,9.11,0,0,0,.51-3.23l1.33.36c0,.18-.07.7-.15,1.55-.14,1.38-.39,2.2-.77,2.47a2.69,2.69,0,0,1-1.47.3H95.9a2.39,2.39,0,0,1-1.38-.3,1.66,1.66,0,0,1-.55-1.4V13.9H91.33q-.77,7.2-6.3,9.66l-.81-1a9.72,9.72,0,0,0,4.26-3.63,12,12,0,0,0,1.5-5H87V5.6H94.8a26.85,26.85,0,0,0,3-5.58ZM88.71,0a19.46,19.46,0,0,1,2.34,4.59l-1.24.47A25.57,25.57,0,0,0,87.57.57Zm9.36,6.78H88.35v5.86h9.72Z"/><path d="M107.62,18.66a21.68,21.68,0,0,0,3.24-1.12l.1,1.36a51.39,51.39,0,0,1-8.24,2.21l-.25-1.27,3.82-.83V10.66h-3.24V9.43h3.24V2.75h-3.57V1.51h8.14V2.75h-3.24V9.43h2.78v1.23h-2.78ZM111.76.8h13.53V12.5h-6.17v3.43h6.44v1.26h-6.44v4.49h7v1.26H110.1V21.68h7.66V17.19h-6.19V15.93h6.19V12.5h-6Zm6,1.21h-4.65V6h4.65Zm0,5.19h-4.65v4.09h4.65ZM123.9,2h-4.78V6h4.78Zm0,5.19h-4.78v4.09h4.78Z"/><path d="M139.24.11h1.54V7.7h10.95V9H140.78V21.4h9.53v1.34H129.7V21.4h9.54V9h-11V7.7h11Z"/><path d="M177.16,2.16V3.4H166.25V5.14h8.57V10h-8.57v1.6h9.22v3.23h1.86v1.24h-1.86v3.43h-9.22v2.25a1.65,1.65,0,0,1-.63,1.5,3.17,3.17,0,0,1-1.62.35h-3.57l-.18-1.48,3.65.06c.63,0,.94-.25.94-.8V19.48h-9.35V18.26h9.35V16.05h-11V14.81h11V12.7h-9.35V11.58h9.35V10h-8.72V5.14h8.72V3.4H154.09V2.16h10.75V.11h1.41V2.16ZM164.84,6.25h-7.25V8.81h7.25Zm8.53,0h-7.12V8.81h7.12Zm.72,6.45h-7.84v2.11h7.84Zm0,3.35h-7.84v2.21h7.84Z"/><path d="M184.61,12.59a28.85,28.85,0,0,1-4.55,7.05l-.94-1.14a24.6,24.6,0,0,0,3-4,22.33,22.33,0,0,0,2.45-4.79h-5.12V8.5h10.71v.86a15,15,0,0,1-2.33,4.84l-1.13-.7a11.75,11.75,0,0,0,1.87-3.75h-2.7v12a2.17,2.17,0,0,1-.45,1.47,1.9,1.9,0,0,1-1.4.39h-2.66l-.41-1.5,2.77.05c.58,0,.88-.22.88-.73Zm1.46-6.54a16,16,0,0,1,1.35,1.26l-.93,1a20.1,20.1,0,0,0-4.61-3.58l.84-1a19.69,19.69,0,0,1,2.35,1.58,16.17,16.17,0,0,0,2.87-3.18h-7.27V.89h9.16V2A19.6,19.6,0,0,1,186.07,6.05Zm9.27,9.21a11.36,11.36,0,0,1-1.2,3.78,11.76,11.76,0,0,1-4.9,4.45l-1-1.14A9.44,9.44,0,0,0,193,18.41a10.38,10.38,0,0,0,1-3.15h-4.77V14h4.95a21.64,21.64,0,0,0,.14-2.34h1.28q0,1.23-.09,2.34h6.24c-.16,4.42-.55,7.21-1.16,8.35a2.42,2.42,0,0,1-2.31,1.23h-2.92l-.35-1.5,3.16.05a1.32,1.32,0,0,0,1.15-.37,7.41,7.41,0,0,0,.83-3.31c.12-1.15.2-2.21.22-3.17Zm-1.16-13h8.52V3.48h-1.78a12.24,12.24,0,0,1-3.27,5.15,19.38,19.38,0,0,0,5.35,2.3l-.64,1.33a22.43,22.43,0,0,1-5.8-2.78,20.87,20.87,0,0,1-5.75,2.68L190,10.94a17.14,17.14,0,0,0,5.46-2.28,11.5,11.5,0,0,1-3.1-3.83A20.69,20.69,0,0,1,190.44,7l-1.1-.78A17.49,17.49,0,0,0,192,3.28,13.92,13.92,0,0,0,193.82,0l1.41.2A12.73,12.73,0,0,1,194.18,2.23Zm-.81,1.25-.11.14-.1.14a13.29,13.29,0,0,0,3.4,4.09,10.63,10.63,0,0,0,2.86-4.37Z"/><path d="M206.73,5.55h8.7v8.9h-7.31q-.31,6-2,9.13l-1.33-.8a19.4,19.4,0,0,0,1.95-9.12ZM205.11,1h11.31V2.31H205.11Zm8.95,5.78h-5.94v6.46h5.94Zm9.52,2.73H219v.78q0,9.26-4.27,13.31l-1.28-.92a12.34,12.34,0,0,0,3-4.63,23.58,23.58,0,0,0,1.11-7.77V1.73A31.86,31.86,0,0,0,226.86.06l.7,1.25A36.16,36.16,0,0,1,219,3V8.21h9.47v1.3H225V23.59h-1.43Z"/><path d="M6.43,37.84H5.31V27.57H7.08l4.22,8.09h0V27.57h1.12V37.84H11.33L6.45,28.51h0Z"/><path d="M13.91,34.2c0-2.73,1.34-3.86,3-3.86s3,1.13,3,3.86-1.33,3.85-3,3.85S13.91,36.93,13.91,34.2Zm5,0c0-1.24-.31-3-1.95-3s-2,1.74-2,3,.32,3,2,3S18.87,35.44,18.87,34.2Z"/><path d="M26.23,31.2,22.48,37h3.75v.87H21.18v-.75l3.72-5.66H21.52v-.87h4.71Z"/><path d="M27.5,34.2c0-2.73,1.33-3.86,3-3.86s3,1.13,3,3.86-1.34,3.85-3,3.85S27.5,36.93,27.5,34.2Zm5,0c0-1.24-.32-3-1.95-3s-2,1.74-2,3,.31,3,2,3S32.46,35.44,32.46,34.2Z"/><path d="M36,37.84H35V30.56H36v.64a3.14,3.14,0,0,1,2.08-.86,2,2,0,0,1,1.82,1,3.63,3.63,0,0,1,2.3-1c1.06,0,1.92.57,1.92,2.47v5H43.07V33.08c0-.77.14-1.89-1-1.89a3,3,0,0,0-2,1v5.69H39V33.08c0-.77.13-1.89-1-1.89a2.94,2.94,0,0,0-2,1Z"/><path d="M49.76,30.56h1.06v7.28H49.76v-.75a3.33,3.33,0,0,1-2.07,1c-1.07,0-1.92-.56-1.92-2.47v-5h1.06v4.76c0,.77.13,1.89,1,1.89a3.19,3.19,0,0,0,1.94-1.11Z"/><path d="M63.85,32.71c0,3.38-1.64,5.34-3.84,5.34s-3.84-2-3.84-5.34S57.8,27.36,60,27.36,63.85,29.33,63.85,32.71Zm-6.57,0c0,3.11,1.26,4.46,2.73,4.46s2.72-1.35,2.72-4.46S61.48,28.25,60,28.25,57.28,29.59,57.28,32.71Z"/><path d="M71.42,31.22H71a1.42,1.42,0,0,0-.76.15,2.63,2.63,0,0,1,.46,1.51,2.47,2.47,0,0,1-2.53,2.51A3.26,3.26,0,0,1,67,35.16c-.24.19-.64.42-.64.78,0,.92,5-.24,5,2.52,0,.54-.18,1.9-3.19,1.9-2.45,0-3.21-.92-3.21-1.82s.68-1.16,1.3-1.42c-.45-.18-.94-.49-.94-1s.52-.85.94-1.33a2.58,2.58,0,0,1-.83-1.92,2.51,2.51,0,0,1,2.66-2.51,2.8,2.8,0,0,1,1.63.52,2.45,2.45,0,0,1,1.71-.55Zm-4,6.17c-.58.11-1.42.44-1.42,1.1,0,1,1.52,1,2.25,1s2.11-.14,2.11-1.14c0-.77-1.26-.86-1.83-.9Zm.72-6.27a1.68,1.68,0,0,0-1.66,1.77,1.63,1.63,0,1,0,1.66-1.77Z"/><path d="M77,37.84l-.11-.92a3.29,3.29,0,0,1-2.18,1.13A2.08,2.08,0,0,1,72.62,36c0-2.09,2.27-2.54,3.93-3l.34-.09V32.5a1.26,1.26,0,0,0-1.43-1.28,2.27,2.27,0,0,0-1.84,1.14l-.75-.54a3.12,3.12,0,0,1,2.59-1.48A2.33,2.33,0,0,1,78,32.61v3.62a4.38,4.38,0,0,0,.2,1.61Zm-.53-4c-1,.29-2.85.69-2.85,2a1.21,1.21,0,0,0,1.13,1.22,3,3,0,0,0,2.14-1.19V33.75Z"/><path d="M85.75,37.84h-1l-1.36-5.78h0l-1.4,5.78H80.83L78.9,30.56h1l1.44,5.92h0l1.44-5.92h1l1.38,5.92h0l1.4-5.92h1Z"/><path d="M92.86,37.84l-.11-.92a3.29,3.29,0,0,1-2.18,1.13A2.08,2.08,0,0,1,88.48,36c0-2.09,2.26-2.54,3.93-3l.34-.09V32.5a1.26,1.26,0,0,0-1.43-1.28,2.26,2.26,0,0,0-1.84,1.14l-.75-.54a3.12,3.12,0,0,1,2.59-1.48,2.33,2.33,0,0,1,2.49,2.27v3.62a4.38,4.38,0,0,0,.2,1.61Zm-.54-4c-1,.29-2.84.69-2.84,2a1.21,1.21,0,0,0,1.13,1.22,3,3,0,0,0,2.14-1.19V33.75Z"/><path d="M105.6,28.5h-2.85v9.34h-1.11V28.5H98.79v-.93h6.81Z"/><path d="M110.82,37.84l-.1-.92a3.29,3.29,0,0,1-2.18,1.13A2.08,2.08,0,0,1,106.45,36c0-2.09,2.26-2.54,3.93-3l.34-.09V32.5a1.26,1.26,0,0,0-1.43-1.28,2.26,2.26,0,0,0-1.84,1.14l-.75-.54a3.1,3.1,0,0,1,2.59-1.48,2.33,2.33,0,0,1,2.49,2.27v3.62a4.18,4.18,0,0,0,.2,1.61Zm-.53-4c-1,.29-2.84.69-2.84,2a1.21,1.21,0,0,0,1.13,1.22,3,3,0,0,0,2.14-1.19V33.75Z"/><path d="M116.24,34l2.45,3.84h-1.28l-1.81-2.92-1.66,2.92h-1.16L115,34l-2.21-3.44h1.27l1.55,2.56,1.47-2.56h1.13Z"/><path d="M130.39,37.84h-1.15l-1-3.27h-3.45l-.91,3.27h-1.15l3-10.27h1.58Zm-3.86-9.58h0l-1.39,5.38H128Z"/><path d="M135.53,32.59c-.26-.67-.66-1.37-1.51-1.37-1.63,0-2,1.74-2,3s.32,3,2,3a2.07,2.07,0,0,0,1.76-1.46l.86.37a2.91,2.91,0,0,1-2.62,2c-1.67,0-3-1.12-3-3.85s1.34-3.86,3-3.86a2.5,2.5,0,0,1,2.41,1.85Z"/><path d="M142.41,32.59c-.26-.67-.67-1.37-1.51-1.37-1.64,0-2,1.74-2,3s.31,3,2,3a2,2,0,0,0,1.75-1.46l.86.37a2.9,2.9,0,0,1-2.61,2c-1.68,0-3-1.12-3-3.85s1.33-3.86,3-3.86a2.5,2.5,0,0,1,2.41,1.85Z"/><path d="M144.76,34.2c0-2.73,1.34-3.86,3-3.86s3,1.13,3,3.86-1.33,3.85-3,3.85S144.76,36.93,144.76,34.2Zm5,0c0-1.24-.32-3-1.95-3s-2,1.74-2,3,.32,3,2,3S149.72,35.44,149.72,34.2Z"/><path d="M156.21,30.56h1.06v7.28h-1.06v-.75a3.31,3.31,0,0,1-2.07,1c-1.06,0-1.92-.56-1.92-2.47v-5h1.06v4.76c0,.77.14,1.89,1,1.89a3.16,3.16,0,0,0,1.93-1.11Z"/><path d="M160,37.84H158.9V30.56H160v.75a3.3,3.3,0,0,1,2.07-1c1.06,0,1.92.57,1.92,2.47v5h-1.07V33.08c0-.77.14-1.89-1-1.89A3.16,3.16,0,0,0,160,32.3Z"/><path d="M167.09,30.56h1.7v.87h-1.7V36c0,.71,0,1.17.85,1.17a3.31,3.31,0,0,0,.85-.09v.75a3.22,3.22,0,0,1-1.06.21c-1.8,0-1.71-1.17-1.71-2.5V31.43h-1.14v-.87H166V28.19h1.07Z"/><path d="M173.91,37.84l-.11-.92a3.26,3.26,0,0,1-2.18,1.13A2.07,2.07,0,0,1,169.54,36c0-2.09,2.26-2.54,3.92-3l.34-.09V32.5a1.26,1.26,0,0,0-1.43-1.28,2.27,2.27,0,0,0-1.84,1.14l-.75-.54a3.12,3.12,0,0,1,2.59-1.48,2.33,2.33,0,0,1,2.49,2.27v3.62a4.38,4.38,0,0,0,.21,1.61Zm-.53-4c-1,.29-2.85.69-2.85,2a1.21,1.21,0,0,0,1.13,1.22,3,3,0,0,0,2.14-1.19V33.75Z"/><path d="M177.58,37.84h-1.06V30.56h1.06v.75a3.32,3.32,0,0,1,2.07-1c1.06,0,1.92.57,1.92,2.47v5h-1.06V33.08c0-.77.14-1.89-1-1.89a3.16,3.16,0,0,0-1.94,1.11Z"/><path d="M184.7,30.56h1.7v.87h-1.7V36c0,.71,0,1.17.86,1.17a3.18,3.18,0,0,0,.84-.09v.75a3.17,3.17,0,0,1-1.06.21c-1.8,0-1.7-1.17-1.7-2.5V31.43H182.5v-.87h1.14V28.19h1.06Z"/><path d="M198.73,32.71c0,3.38-1.64,5.34-3.84,5.34s-3.85-2-3.85-5.34,1.64-5.35,3.85-5.35S198.73,29.33,198.73,32.71Zm-6.57,0c0,3.11,1.25,4.46,2.73,4.46s2.72-1.35,2.72-4.46-1.25-4.46-2.72-4.46S192.16,29.59,192.16,32.71Z"/><path d="M203,31.43h-1.39v6.41h-1.06V31.43h-1.15v-.87h1.15V29.24a1.74,1.74,0,0,1,2-1.88,2.35,2.35,0,0,1,.55.08v.89a1.49,1.49,0,0,0-.51-.1c-.81,0-1,.4-1,1v1.34H203Z"/><path d="M208.85,37.84h-1.06V31.43h-2.23v6.41h-1.07V31.43h-1.14v-.87h1.14V29.24c0-1.24,1-1.88,2.27-1.88a2.54,2.54,0,0,1,1.55.35v1a1.94,1.94,0,0,0-1.51-.48c-.81,0-1.24.4-1.24,1v1.34h3.29Z"/><path d="M214.84,32.59c-.26-.67-.67-1.37-1.51-1.37-1.63,0-2,1.74-2,3s.32,3,2,3a2.07,2.07,0,0,0,1.76-1.46l.86.37a2.91,2.91,0,0,1-2.62,2c-1.67,0-3-1.12-3-3.85s1.34-3.86,3-3.86a2.5,2.5,0,0,1,2.41,1.85Z"/><path d="M218.31,34.37c0,2.09.91,2.81,2,2.81a2.34,2.34,0,0,0,1.84-1.25l.77.49a2.89,2.89,0,0,1-2.71,1.63c-1.68,0-3-1.12-3-3.85s1.33-3.86,3-3.86c2.16,0,2.79,2.25,2.64,4Zm3.42-.87c0-.94-.49-2.28-1.61-2.28s-1.77,1.25-1.78,2.28Z"/></g></g></svg>